<?xml version="1.0" encoding="iso-8859-1"?>
<!-- Generator: Adobe Illustrator 19.0.0, SVG Export Plug-In . SVG Version: 6.00 Build 0)  -->
<svg version="1.1" id="Capa_1" xmlns="http://www.w3.org/2000/svg" xmlns:xlink="http://www.w3.org/1999/xlink" x="0px" y="0px"
	 viewBox="0 0 512 512" style="enable-background:new 0 0 512 512;" xml:space="preserve">
<g>
	<path style="fill:#4ABAA5;" d="M444.8,180.267c0,0-83.2,0-188.8,77.867c9.6,3.2,16,12.8,16,23.467v1.067
		C316.8,241.067,384,189.867,444.8,180.267z"/>
	<path style="fill:#4ABAA5;" d="M362.667,347.733c6.4,7.467,10.667,16,13.867,25.6c108.8-73.6,135.467-153.6,135.467-153.6
		C484.267,273.067,414.933,318.933,362.667,347.733z"/>
	<path style="fill:#4ABAA5;" d="M195.2,183.467c9.6-6.4,22.4-4.267,29.867,3.2C243.2,137.6,269.867,58.667,267.733,0
		C267.733,0,243.2,96,195.2,183.467z"/>
	<path style="fill:#4ABAA5;" d="M371.2,184.533c-3.2,30.933-27.733,54.4-27.733,54.4s-19.2-27.733-16-58.667
		c3.2-30.933,27.733-54.4,27.733-54.4S374.4,152.533,371.2,184.533z"/>
	<path style="fill:#4ABAA5;" d="M307.2,107.733c-7.467,26.667-32,43.733-32,43.733s-12.8-27.733-5.333-54.4s32-43.733,32-43.733
		S314.667,81.067,307.2,107.733z"/>
	<path style="fill:#4ABAA5;" d="M403.2,251.733c-30.933,4.267-59.733-13.867-59.733-13.867s22.4-25.6,53.333-29.867
		s59.733,13.867,59.733,13.867S434.133,247.467,403.2,251.733z"/>
	<path style="fill:#4ABAA5;" d="M210.133,82.133c-3.2,30.933-27.733,54.4-27.733,54.4s-19.2-27.733-16-58.667
		s27.733-54.4,27.733-54.4S213.333,50.133,210.133,82.133z"/>
	<path style="fill:#4ABAA5;" d="M390.4,332.8c-30.933,4.267-59.733-13.867-59.733-13.867s22.4-25.6,53.333-29.867
		s59.733,13.867,59.733,13.867S422.4,328.533,390.4,332.8z"/>
	<path style="fill:#4ABAA5;" d="M370.133,347.733c6.4,3.2,13.867,7.467,19.2,12.8c38.4-12.8,93.867-29.867,118.4-26.667
		C465.067,320,433.067,331.733,370.133,347.733z"/>
</g>
<polygon style="fill:#E8EAE9;" points="156.8,98.133 0,512 424.533,388.267 "/>
<g>
	<path style="fill:#FFD15C;" d="M309.333,145.067c-7.467,6.4-42.667,28.8-49.067,21.333c-6.4-7.467,18.133-40.533,24.533-48
		c7.467-6.4,18.133-6.4,25.6,1.067C316.8,126.933,316.8,138.667,309.333,145.067z"/>
	<path style="fill:#FFD15C;" d="M266.667,113.067c2.133,9.6,3.2,51.2-6.4,53.333c-9.6,2.133-26.667-35.2-28.8-45.867
		c-2.133-9.6,4.267-19.2,13.867-21.333C254.933,97.067,264.533,103.467,266.667,113.067z"/>
	<path style="fill:#FFD15C;" d="M216.533,134.4c9.6,3.2,45.867,22.4,42.667,32c-3.2,9.6-43.733,5.333-53.333,2.133
		c-9.6-3.2-14.933-12.8-11.733-22.4C197.333,136.533,208,131.2,216.533,134.4z"/>
	<path style="fill:#FFD15C;" d="M210.133,187.733c7.467-6.4,42.667-28.8,49.067-21.333c6.4,7.467-18.133,40.533-24.533,48
		c-7.467,6.4-18.133,6.4-25.6-1.067C202.667,205.867,203.733,194.133,210.133,187.733z"/>
	<path style="fill:#FFD15C;" d="M253.867,219.733c-2.133-9.6-3.2-51.2,6.4-53.333c9.6-2.133,26.667,35.2,28.8,45.867
		c2.133,9.6-4.267,19.2-13.867,21.333C265.6,235.733,256,229.333,253.867,219.733z"/>
	<path style="fill:#FFD15C;" d="M302.933,198.4c-9.6-3.2-45.867-22.4-42.667-32s43.733-5.333,53.333-2.133s14.933,12.8,11.733,22.4
		S312.533,201.6,302.933,198.4z"/>
</g>
<circle style="fill:#F3705A;" cx="260.267" cy="166.4" r="18.133"/>
<circle style="fill:#415A6B;" cx="260.267" cy="166.4" r="10.667"/>
<g>
	<path style="fill:#F3705A;" d="M375.467,232.533c-7.467,6.4-42.667,28.8-49.067,21.333c-6.4-7.467,18.133-40.533,25.6-48
		c7.467-6.4,18.133-6.4,25.6,1.067C384,214.4,382.933,226.133,375.467,232.533z"/>
	<path style="fill:#F3705A;" d="M332.8,200.533c2.133,9.6,3.2,51.2-6.4,53.333c-9.6,2.133-26.667-35.2-28.8-45.867
		c-2.133-9.6,4.267-19.2,13.867-21.333S330.667,190.933,332.8,200.533z"/>
	<path style="fill:#F3705A;" d="M283.733,221.867c9.6,3.2,45.867,22.4,42.667,32S282.667,259.2,273.067,256
		c-9.6-3.2-14.933-12.8-11.733-22.4C264.533,224,274.133,218.667,283.733,221.867z"/>
	<path style="fill:#F3705A;" d="M277.333,275.2c7.467-6.4,42.667-28.8,49.067-21.333c6.4,7.467-18.133,40.533-24.533,48
		c-7.467,6.4-18.133,6.4-25.6-1.067C269.867,293.333,269.867,281.6,277.333,275.2z"/>
	<path style="fill:#F3705A;" d="M320,307.2c-2.133-9.6-3.2-51.2,6.4-53.333c9.6-2.133,26.667,35.2,28.8,45.867
		c2.133,9.6-4.267,19.2-13.867,21.333C331.733,322.133,322.133,316.8,320,307.2z"/>
	<path style="fill:#F3705A;" d="M369.067,285.867c-9.6-3.2-45.867-22.4-42.667-32s43.733-5.333,53.333-2.133
		c9.6,3.2,14.933,12.8,11.733,22.4S378.667,289.067,369.067,285.867z"/>
</g>
<circle style="fill:#FFD15C;" cx="326.4" cy="253.867" r="18.133"/>
<circle style="fill:#415A6B;" cx="326.4" cy="253.867" r="10.667"/>
<g>
	<path style="fill:#FFD15C;" d="M458.667,236.8c-6.4,5.333-36.267,23.467-41.6,18.133c-5.333-6.4,14.933-34.133,21.333-39.467
		c6.4-5.333,16-5.333,21.333,1.067C465.067,221.867,465.067,231.467,458.667,236.8z"/>
	<path style="fill:#FFD15C;" d="M422.4,210.133c2.133,8.533,3.2,42.667-5.333,44.8c-8.533,2.133-22.4-29.867-24.533-38.4
		c-2.133-8.533,3.2-16,11.733-18.133C412.8,196.267,420.267,201.6,422.4,210.133z"/>
	<path style="fill:#FFD15C;" d="M380.8,227.2c7.467,2.133,38.4,19.2,36.267,26.667c-2.133,7.467-37.333,4.267-44.8,2.133
		s-12.8-10.667-9.6-19.2C364.8,229.333,373.333,225.067,380.8,227.2z"/>
	<path style="fill:#FFD15C;" d="M375.467,272c6.4-5.333,36.267-23.467,41.6-18.133c5.333,6.4-14.933,34.133-21.333,39.467
		s-16,5.333-21.333-1.067C369.067,288,369.067,278.4,375.467,272z"/>
	<path style="fill:#FFD15C;" d="M411.733,299.733c-2.133-8.533-3.2-42.667,5.333-44.8s22.4,29.867,24.533,38.4
		c2.133,8.533-3.2,16-11.733,18.133C421.333,312.533,413.867,307.2,411.733,299.733z"/>
	<path style="fill:#FFD15C;" d="M453.333,281.6c-7.467-2.133-38.4-19.2-36.267-26.667c2.133-7.467,37.333-4.267,44.8-2.133
		c7.467,2.133,12.8,10.667,9.6,19.2C469.333,279.467,460.8,283.733,453.333,281.6z"/>
</g>
<circle style="fill:#F3705A;" cx="417.067" cy="254.933" r="14.933"/>
<circle style="fill:#415A6B;" cx="417.067" cy="254.933" r="8.533"/>
<g>
	<path style="fill:#F3705A;" d="M248.533,88.533c-10.667,9.6-23.467,17.067-27.733,12.8s4.267-16,14.933-26.667
		c10.667-9.6,23.467-16,26.667-12.8C266.667,66.133,259.2,77.867,248.533,88.533z"/>
	<path style="fill:#F3705A;" d="M231.467,72.533c-1.067,14.933-5.333,28.8-10.667,28.8c-5.333,0-8.533-13.867-7.467-28.8
		C214.4,57.6,218.667,43.733,224,44.8C228.267,43.733,231.467,57.6,231.467,72.533z"/>
	<path style="fill:#F3705A;" d="M208,73.6c9.6,10.667,17.067,23.467,12.8,27.733c-3.2,3.2-16-4.267-26.667-14.933
		c-9.6-10.667-16-23.467-12.8-26.667C185.6,55.467,198.4,62.933,208,73.6z"/>
	<path style="fill:#F3705A;" d="M192,90.667c14.933,1.067,28.8,5.333,28.8,10.667s-13.867,8.533-28.8,7.467
		c-14.933-1.067-28.8-5.333-27.733-10.667C164.267,93.867,178.133,90.667,192,90.667z"/>
	<path style="fill:#F3705A;" d="M194.133,114.133c10.667-9.6,23.467-17.067,27.733-12.8s-5.333,16-16,26.667
		c-10.667,9.6-23.467,16-26.667,12.8C174.933,136.533,182.4,123.733,194.133,114.133z"/>
	<path style="fill:#F3705A;" d="M211.2,130.133c1.067-14.933,5.333-28.8,10.667-28.8c5.333,0,8.533,13.867,7.467,28.8
		c-1.067,14.933-5.333,28.8-10.667,27.733C213.333,158.933,210.133,144,211.2,130.133z"/>
	<path style="fill:#F3705A;" d="M233.6,129.067c-9.6-10.667-17.067-23.467-12.8-27.733c3.2-3.2,16,4.267,26.667,14.933
		c9.6,10.667,16,23.467,12.8,26.667C256,147.2,244.267,139.733,233.6,129.067z"/>
	<path style="fill:#F3705A;" d="M249.6,110.933c-14.933-1.067-28.8-5.333-28.8-10.667c0-5.333,13.867-8.533,28.8-7.467
		c14.933,1.067,28.8,5.333,27.733,10.667C278.4,108.8,264.533,112,249.6,110.933z"/>
</g>
<circle style="fill:#FFD15C;" cx="220.8" cy="101.333" r="16"/>
<circle style="fill:#415A6B;" cx="220.8" cy="101.333" r="9.6"/>
<g>
	<path style="fill:#F3705A;" d="M358.4,120.533c-9.6,8.533-21.333,14.933-24.533,11.733s3.2-13.867,13.867-23.467
		c9.6-8.533,21.333-14.933,24.533-11.733C375.467,101.333,368,112,358.4,120.533z"/>
	<path style="fill:#F3705A;" d="M343.467,106.667c0,12.8-4.267,25.6-8.533,25.6s-7.467-12.8-7.467-25.6s4.267-25.6,8.533-25.6
		C341.333,82.133,344.533,93.867,343.467,106.667z"/>
	<path style="fill:#F3705A;" d="M323.2,107.733c8.533,9.6,14.933,21.333,11.733,24.533c-3.2,3.2-13.867-3.2-23.467-13.867
		c-9.6-10.667-14.933-21.333-11.733-24.533C302.933,91.733,313.6,98.133,323.2,107.733z"/>
	<path style="fill:#F3705A;" d="M309.333,123.733c12.8,0,25.6,4.267,25.6,8.533c0,4.267-12.8,7.467-25.6,7.467
		c-12.8,0-25.6-4.267-25.6-8.533C283.733,125.867,296.533,122.667,309.333,123.733z"/>
	<path style="fill:#F3705A;" d="M310.4,144c9.6-8.533,21.333-14.933,24.533-11.733c3.2,3.2-3.2,13.867-13.867,23.467
		c-9.6,8.533-21.333,14.933-24.533,11.733C294.4,164.267,300.8,152.533,310.4,144z"/>
	<path style="fill:#F3705A;" d="M325.333,157.867c0-12.8,4.267-25.6,8.533-25.6s7.467,12.8,7.467,25.6c0,12.8-4.267,25.6-8.533,25.6
		C328.533,183.467,325.333,170.667,325.333,157.867z"/>
	<path style="fill:#F3705A;" d="M345.6,156.8c-8.533-9.6-14.933-21.333-11.733-24.533c3.2-3.2,13.867,3.2,23.467,13.867
		c8.533,9.6,14.933,21.333,11.733,24.533C365.867,172.8,355.2,166.4,345.6,156.8z"/>
	<path style="fill:#F3705A;" d="M359.467,141.867c-12.8,0-25.6-4.267-25.6-8.533s12.8-7.467,25.6-7.467
		c12.8,0,25.6,4.267,25.6,8.533C385.067,138.667,373.333,141.867,359.467,141.867z"/>
</g>
<circle style="fill:#FFD15C;" cx="334.933" cy="132.267" r="13.867"/>
<circle style="fill:#415A6B;" cx="334.933" cy="132.267" r="8.533"/>
<g>
	<path style="fill:#F3705A;" d="M451.2,322.133c-10.667,9.6-23.467,17.067-27.733,12.8c-3.2-3.2,4.267-16,14.933-26.667
		c10.667-9.6,23.467-16,26.667-12.8C469.333,299.733,461.867,311.467,451.2,322.133z"/>
	<path style="fill:#F3705A;" d="M434.133,306.133c-1.067,14.933-5.333,28.8-10.667,28.8c-5.333,0-8.533-13.867-7.467-28.8
		s5.333-28.8,10.667-27.733C430.933,277.333,434.133,291.2,434.133,306.133z"/>
	<path style="fill:#F3705A;" d="M410.667,307.2c9.6,10.667,17.067,23.467,12.8,27.733c-3.2,3.2-16-4.267-26.667-14.933
		c-9.6-10.667-16-23.467-12.8-26.667C388.267,289.067,401.067,296.533,410.667,307.2z"/>
	<path style="fill:#F3705A;" d="M395.733,324.267c14.933,1.067,28.8,5.333,28.8,10.667c0,5.333-13.867,8.533-28.8,7.467
		s-28.8-5.333-27.733-10.667C366.933,327.467,380.8,324.267,395.733,324.267z"/>
	<path style="fill:#F3705A;" d="M396.8,347.733c10.667-9.6,23.467-17.067,27.733-12.8c3.2,3.2-4.267,16-14.933,26.667
		c-10.667,9.6-23.467,16-26.667,12.8C378.667,370.133,386.133,357.333,396.8,347.733z"/>
	<path style="fill:#F3705A;" d="M413.867,363.733c1.067-14.933,5.333-28.8,10.667-28.8c5.333,0,8.533,13.867,7.467,28.8
		s-5.333,28.8-10.667,27.733C417.067,391.467,412.8,377.6,413.867,363.733z"/>
	<path style="fill:#F3705A;" d="M436.267,361.6c-9.6-10.667-17.067-23.467-12.8-27.733c3.2-3.2,16,4.267,26.667,14.933
		c9.6,10.667,16,23.467,12.8,26.667C458.667,380.8,446.933,373.333,436.267,361.6z"/>
	<path style="fill:#F3705A;" d="M452.267,344.533c-14.933-1.067-28.8-5.333-28.8-10.667s13.867-8.533,28.8-7.467
		c14.933,1.067,28.8,5.333,27.733,10.667C481.067,342.4,467.2,345.6,452.267,344.533z"/>
</g>
<circle style="fill:#FFD15C;" cx="423.467" cy="334.933" r="16"/>
<path style="fill:#415A6B;" d="M429.867,341.333c-4.267,3.2-9.6,3.2-13.867,0c-3.2-4.267,0-7.467,0-13.867
	c1.067-6.4,9.6-3.2,13.867,0C434.133,331.733,434.133,338.133,429.867,341.333z"/>
<g>
</g>
<g>
</g>
<g>
</g>
<g>
</g>
<g>
</g>
<g>
</g>
<g>
</g>
<g>
</g>
<g>
</g>
<g>
</g>
<g>
</g>
<g>
</g>
<g>
</g>
<g>
</g>
<g>
</g>
</svg>
